<?xml version="1.0" encoding="UTF-8"?>
<svg id="Capa_1" xmlns="http://www.w3.org/2000/svg" viewBox="0 0 505.72 509.79">
  <defs>
    <style>
      .cls-1 {
        fill: #fff;
      }
    </style>
  </defs>
  <path class="cls-1" d="M0,509.79L294.8,0l105.05,181.6s-13.03-3.26-29.32-3.26-24.43,1.63-24.43,1.63l-52.93-87.14L76.55,465.82h58.63l60.26-110.75s-1.63,16.29,3.26,39.09c4.49,20.95,9.77,30.95,9.77,30.95l-50.49,83.07-157.99,1.63Z"/>
  <path class="cls-1" d="M240.24,279.33s30.95-61.89,96.09-71.66c65.15-9.77,83.88,7.33,83.88,7.33l59.45,105.05-53.75,1.63-39.09-70.04s-47.23-9.77-84.69,21.17c-40.2,33.21-55.38,131.93,6.51,174.27,26.68,18.26,52.77,21.01,71.66,19.54,56.69-4.39,76.55-71.66,76.55-71.66h48.86s-13.03,66.78-76.55,100.98c-51.06,27.5-206.85,27.69-206.85-146.59,0-33.8,17.92-70.04,17.92-70.04Z"/>
</svg>