<svg xmlns="http://www.w3.org/2000/svg" viewBox="0 0 527.3 532.41">
  <path fill="#a3e635" d="M219.12,407.56c-4.55-21.23-3.14-36.63-3.13-36.77l3.69-36.94-75.88,139.45h-41.15L306.4,122.5l46.38,76.35,2.73,4.46,5.13-1c.08-.01,7.83-1.49,22.98-1.49s27.38,3.01,27.5,3.03l17.18,4.29L307.88,0,0,532.41l175.31-1.81,52.66-86.63,2.18-3.63-1.94-3.75c-.05-.09-4.92-9.61-9.08-29.04Z"/>
  <path fill="#a3e635" d="M469.94,402.95h-5.22s-1.49,5.01-1.49,5.01c-.19.63-19.25,62.72-70.38,66.67-24.06,1.87-46.66-4.31-67.17-18.34-23.33-15.96-36.98-42.52-38.44-74.8-1.58-34.91,11.75-71.22,32.43-88.3,29.09-24.03,65.22-21.55,75.79-20.18l39.5,70.77,69.59-2.11-65.71-116.12-.82-.75c-2.17-1.98-23.11-19.06-89.64-9.08-67.96,10.19-99.99,72.8-101.32,75.46v.03c-.77,1.54-18.65,38.11-18.65,73.14,0,86.34,37.68,126.97,69.29,145.85,25.84,15.44,54.83,21.23,81.16,21.23s51.58-6.19,66.71-14.34c65.68-35.37,79.54-102.94,80.1-105.8l1.63-8.34h-57.36Z"/>
</svg>
